{"title":"MotoGP.2015x16.Australia.Race.BTSportHD.720p50","uid":12593841,"size":10000475555,"categoryP":"video","categoryS":"hd___tv_shows","magnet":"?xt=urn:btih:411bcb70b88ed68d4f687b9747616707296399e9&amp;dn=MotoGP.2015x16.Australia.Race.BTSportHD.720p50&amp;tr=udp%3A%2F%2Ftracker.leechers-paradise.org%3A6969&amp;tr=udp%3A%2F%2Fzer0day.ch%3A1337&amp;tr=udp%3A%2F%2Fopen.demonii.com%3A1337&amp;tr=udp%3A%2F%2Ftracker.coppersurfer.tk%3A6969&amp;tr=udp%3A%2F%2Fexodus.desync.com%3A6969","seeders":2,"leechers":2,"uploader":"vickey1992","files":4,"time":1445201467,"description":"An epic MotoGP title battle continues at Phillip Island, round 16 of the series.\r\n\r\nVideo\r\nID : 1\r\nFormat : AVC\r\nFormat/Info : Advanced Video Codec\r\nFormat profile :   \r\nFormat settings, CABAC : Yes\r\nFormat settings, ReFrames : 4 frames\r\nCodec ID : avc1\r\nCodec ID/Info : Advanced Video Coding\r\nDuration : 27mn 59s\r\nBit rate : 3 123 Kbps\r\nWidth : 1 280 pixels\r\nHeight : 720 pixels\r\nDisplay aspect ratio : 16:9\r\nFrame rate mode : Constant\r\nFrame rate : 50.000 fps\r\nColor space : YUV\r\nChroma subsampling : 4:2:0\r\nBit depth : 8 bits\r\nScan type : Progressive\r\nBits/(Pixel*Frame) : 0.068\r\nStream size : 625 MiB (83%)\r\nWriting library : x264 core 142 r2479 dd79a61\r\nEncoding settings : cabac=1 / ref=2 / deblock=1:0:0 / analyse=0x3:0x113 / me=hex / subme=4 / psy=1 / psy_rd=1.00:0.00 / mixed_ref=0 / me_range=16 / chroma_me=1 / trellis=1 / 8x8dct=1 / cqm=0 / deadzone=21,11 / fast_pskip=1 / chroma_qp_offset=0 / threads=12 / lookahead_threads=3 / sliced_threads=0 / nr=0 / decimate=1 / interlaced=0 / bluray_compat=0 / constrained_intra=0 / bframes=3 / b_pyramid=2 / b_adapt=1 / b_bias=0 / direct=1 / weightb=1 / open_gop=0 / weightp=1 / keyint=500 / keyint_min=50 / scenecut=40 / intra_refresh=0 / rc_lookahead=20 / rc=crf / mbtree=1 / crf=20.0 / qcomp=0.60 / qpmin=0 / qpmax=69 / qpstep=4 / vbv_maxrate=62500 / vbv_bufsize=78125 / crf_max=0.0 / nal_hrd=none / filler=0 / ip_ratio=1.40 / aq=1:1.00\r\nEncoded date : UTC 2036-02-06 06:28:16\r\nTagged date : UTC 2036-02-06 06:28:16\r\nColor range : Limited\r\nColor primaries : BT.709\r\nTransfer characteristics : BT.709\r\nMatrix coefficients : BT.709\r\n\r\nAudio #1\r\nID : 2\r\nFormat : AAC\r\nFormat/Info : Advanced Audio Codec\r\nFormat profile : LC\r\nCodec ID : 40\r\nDuration : 27mn 58s\r\nBit rate mode : Variable\r\nBit rate : 321 Kbps\r\nChannel(s) : 2 channels\r\nChannel positions : Front: L R\r\nSampling rate : 48.0 KHz\r\nCompression mode : Lossy\r\nStream size : 64.3 MiB (9%)\r\nTitle : AAC / AAC\r\nEncoded date : UTC 2036-02-06 06:28:16\r\nTagged date : UTC 2036-02-06 06:28:16\r\n\r\nAudio #2\r\nID : 3\r\nFormat : AC-3\r\nFormat/Info : Audio Coding 3\r\nMode extension : CM (complete main)\r\nFormat settings, Endianness : Big\r\nCodec ID : ac-3\r\nDuration : 27mn 59s\r\nBit rate mode : Constant\r\nBit rate : 320 Kbps\r\nChannel(s) : 2 channels\r\nChannel positions : Front: L R\r\nSampling rate : 48.0 KHz\r\nBit depth : 16 bits\r\nCompression mode : Lossy\r\nStream size : 64.0 MiB (8%)\r\nTitle : AC3 / AC3\r\nEncoded date : UTC 2036-02-06 06:28:16\r\nTagged date : UTC 2036-02-06 06:28:16","torrent":{"xt":"urn:btih:411bcb70b88ed68d4f687b9747616707296399e9","amp;dn":"MotoGP.2015x16.Australia.Race.BTSportHD.720p50","amp;tr":["udp%3A%2F%2Ftracker.leechers-paradise.org%3A6969","udp%3A%2F%2Fzer0day.ch%3A1337","udp%3A%2F%2Fopen.demonii.com%3A1337","udp%3A%2F%2Ftracker.coppersurfer.tk%3A6969","udp%3A%2F%2Fexodus.desync.com%3A6969"],"infoHash":"411bcb70b88ed68d4f687b9747616707296399e9","infoHashBuffer":{"type":"Buffer","data":[65,27,203,112,184,142,214,141,79,104,123,151,71,97,103,7,41,99,153,233]},"announce":[],"urlList":[]}}